<svg xmlns="http://www.w3.org/2000/svg" width="100%" height="100%" viewBox="0 0 407.625 313.313" preserveAspectRatio="xMidYMid meet" id="target"><path d="M274.953 305.734a98.856 98.856 0 0 0 7.393-19.783 144.351 144.351 0 0 0 3.6-18.783q.993-8.589 3.4-19.982t7.993-18.583l-2.8-15.587a74.345 74.345 0 0 0-20.781-10.99 205.781 205.781 0 0 0-22.18-6.194q-11-2.4-21.981-3.8t-23.379-3.8l12.382-32.764 7.194-2.4q19.577 0 36.767 1.2a240.572 240.572 0 0 1 34.569 5q17.385 3.8 33.171 8.793a232.277 232.277 0 0 0 32.97 7.793h13.588a23.421 23.421 0 0 0 10.99-2.6 38.114 38.114 0 0 0 9.791-7.593 33.439 33.439 0 0 1 9.992-7.394v-7.595q-24.784-5.189-46.959-11.39a215.26 215.26 0 0 0-47.957-7.393q-25.776-1.2-51.554-1.2a145.278 145.278 0 0 1-47.757-7.593q-2.4-2.791-2.4-7.793v-9.791a12.176 12.176 0 0 0-3.6-8.592q-3.6-3.794-5.994-6.194l-17.185 2.4-5.2 15.187h-4.8l-2.4 14.787a163.507 163.507 0 0 0-45.559 11.589 369.371 369.371 0 0 1-41.563 14.787 264.353 264.353 0 0 1-44.161 8.593q-23.36 2.6-40.543 22.576v7.594l19.582 17.584a74.256 74.256 0 0 0 23.379-8.792q10.987-6.388 21.98-11.39a78.558 78.558 0 0 1 24.578-6.394q13.582-1.4 25.977-3.4h46.758l-2.8 9.991-14.387 9.591-15.187 15.586 9.592 44.76-2 9.991v12.589a67 67 0 0 0 1 12.789 31.541 31.541 0 0 0 3.8 9.791 47.665 47.665 0 0 0 7.594 9.591l36.367-6.793h18.583a149.646 149.646 0 0 1 17.185 1q8.589 1 17.185 2.4a43.068 43.068 0 0 1 16.185 6.194zm-41.963-29.973l-29.174 2.8-41.563-2.8-5.595-34.769 2.8-7.594q4.8-7.587 12.189-7.593a92.326 92.326 0 0 0 14.787-1.2q7.391-1.2 13.588-2.6t13.388-3.8h25.777a65.056 65.056 0 0 1 12.389 1.2 19.977 19.977 0 0 1 10.99 6.394v13.988a66.075 66.075 0 0 1-1.2 12.588q-1.2 6.2-2.4 12.189a21.928 21.928 0 0 1-6.394 11.191v5.195zM174.243 75.539v-7.193h4.8l5.2-17.584 19.582-10.391H223.4v17.384a29.217 29.217 0 0 0 1.2 8.792q1.2 3.8 5.994 6.594h4.8v-2.8h5.2l9.991-22.38h2v-4.8l7.593-2.8 14.787 2.8 29.174-2.8a22.173 22.173 0 0 0-3.4-12.389q-3.4-5.189-10.99-6.394a89.155 89.155 0 0 0-13.788-1.2h-13.397L250.575 5.202l-15.187-5.2-9.591 2.8 4.8 12.789v4.8l-36.767 5.2h-8.592a30.884 30.884 0 0 1-8.592-1.4 29.745 29.745 0 0 1-8.593-4 40.934 40.934 0 0 1-5.8-4.6h-17.184l-5.595 12.391a63.354 63.354 0 0 0-8.193 4.8 14.558 14.558 0 0 1-8.592 2.4 13.74 13.74 0 0 0-8.593 2.6 24.957 24.957 0 0 0-6.194 7.393l4.8 17.584 17.184-2.4h24.774v5.2q2 2.8 3.4 5.2a9.462 9.462 0 0 1 1.4 4.8c0 1.6 1.261 2.4 3.8 2.4h5.794v5.195z" fill-rule="evenodd"/></svg>