<svg xmlns="http://www.w3.org/2000/svg" width="100%" height="100%" viewBox="0 0 381 358" preserveAspectRatio="xMidYMid meet" id="target"><path d="M36.052 342.454a252.432 252.432 0 0 1 33.293-12.6 165.543 165.543 0 0 1 34.672-6.3 102.28 102.28 0 0 0 34.672-8.861l-2.364-15.36-8.274 2.363h-19.7v-33.482l41.764-4.726v-10.24a17.918 17.918 0 0 1-9.653-2.56 18.381 18.381 0 0 0-9.85-2.56h-11.229a9.879 9.879 0 0 1-8.668-4.726v-18.117l17.336 4.726h10.638l14.184-27.569 24.822 7.483 19.7 22.843-2.758 7.877q-5.523 7.486-12.608 10.043t-12.805 10.043q-5.716 7.486-13.987 8.862a24.731 24.731 0 0 0-13.79 6.892l3.152 9.846 13.79 5.514 14.184 50.412 10.638 7.877 25.61-2.757 30.338 2.757 19.306-5.514q5.512-4.338 9.653-8.271a19.355 19.355 0 0 0 5.516-9.058q1.375-5.113 2.955-10.24a34.736 34.736 0 0 0 1.576-10.24l24.822 5.12 16.548-2.363 25.216 2.363h11.032L381 291.845l-8.668-31.114-21.67 7.483q-16.944-1.966-32.308-4.726a308.314 308.314 0 0 0-30.732-3.938 63.333 63.333 0 0 1-29.353-10.043 142.451 142.451 0 0 1-24.625-19.5v-4.726l10.638-5.514 5.91-7.483h5.516l8.274-15.36 8.274-2.363v-10.24l-16.548-7.483-13.79 1.97-27.974-4.727h-22.459v4.727l-27.974 15.753h-5.122l-3.152-10.24a28.558 28.558 0 0 0-13.593-7.876q-8.478-2.364-16.745-4.924a55.809 55.809 0 0 0-16.548-2.559 52.022 52.022 0 0 1-16.551-2.753l-42.158 12.6-11.029 18.119 5.516 40.96 19.7-5.12h19.7l2.364 10.632v23.83a69.25 69.25 0 0 1-1.182 12.8 37.62 37.62 0 0 1-4.334 11.815h-5.91a44.623 44.623 0 0 0-1.182-10.437 39.013 39.013 0 0 1-1.185-9.058 33.891 33.891 0 0 0-1.379-9.059q-1.385-4.92-6.9-7.68l-19.7 7.877 5.516 20.48-2.364 20.48-38.999 14.966L0 330.048v13.784a12.666 12.666 0 0 0 1.379 6.105 30.6 30.6 0 0 0 3.743 5.317v2.757q14.185-7.884 30.93-15.557zm196.213-17.526h-13.988a54.453 54.453 0 0 1-12.8-1.379 44.783 44.783 0 0 1-10.835-4.135l-8.668-20.086v-5.514l31.126-9.846h9.259a32.178 32.178 0 0 1 8.471 1.181 14.341 14.341 0 0 1 6.9 3.939 27.781 27.781 0 0 0 5.713 4.726l-3.152 23.631v7.483h-12.027zm-21.079-61.44H197.4v-7.877l13.79-4.726v-2.757l19.306 10.24zm-8.274-56.32v-4.726l16.548 1.969v10.634zm-114.26 7.877l-27.58-5.12v-15.36l30.732-5.12h30.338l-5.516 17.723zm125.489-57.7q5.319-1.376 10.835-2.757a124.573 124.573 0 0 1 12.411-2.363q6.89-.978 6.9-6.5h3.152l-3.152-12.6q-2.364-2.751-8.077-2.757H216.7a8.144 8.144 0 0 1-7.88-4.726v-5.12l24.822-2.757 2.364-7.483v-13l-30.338-7.877h-11.031l-3.152 7.877h-5.516l-5.122 7.483 2.364 10.24 19.7 5.514-22.064 12.6v5.12h-5.91l-5.516 10.24q-2.761 7.485 2.758 7.483h22.261a12.44 12.44 0 0 1 8.471 2.757 44.417 44.417 0 0 0 11.229-1.372zm-89.241-8.859l5.516-15.36h5.91l2.364 10.24 14.184-2.757a36.532 36.532 0 0 0 6.9-15.163q1.376-7.68 2.561-16.542a135.33 135.33 0 0 0 1.182-17.92q0-9.055 11.426-13.785H197.2a53.526 53.526 0 0 1 11.229 1.182 22.153 22.153 0 0 1 8.668 3.545l8.274-2.363a35.1 35.1 0 0 1 20.488 1.379 54.519 54.519 0 0 0 19.5 3.742 140.955 140.955 0 0 1 19.5 1.378 33.76 33.76 0 0 1 18.124 8.861v15.36h-8.274v4.726h5.516l2.758 13.391 11.426 7.483v4.726l22.064-4.726 2.758-35.84-5.516-30.72-11.032-5.514-25.216 2.757a133.441 133.441 0 0 1-32.111-3.742 203.943 203.943 0 0 0-30.535-5.12q-15.366-1.376-32.111-2.56t-33.293-1.182l-5.91-23.237V26h10.047a15.308 15.308 0 0 0 6.9-1.378c1.834-.917 3.743-1.772 5.713-2.56s3.743-3.015 5.319-6.7V.006l-41.37 2.757L133.173.006l-33.1 5.514-5.91 12.6v10.24l36.248 5.12-2.364 10.24q-14.184 5.123-28.171 8.862t-27.97 7.486a173.628 173.628 0 0 1-30.535 5.12 271.229 271.229 0 0 0-30.338 4.135l-8.275 15.36v12.6l8.274 2.757v12.6a56.491 56.491 0 0 0 1.182 12.8q1.182 4.929 2.758 11.421a48.208 48.208 0 0 0 4.334 11.619l5.516 2.757 13.79-5.514v-5.12l8.668-2.363-3.151-43.317v-5.514l58.313-9.846 8.274 2.363 22.458-2.363h5.516v43.323L97.319 128.4h-8.668v-10.634h17.927a15.576 15.576 0 0 0 8.274-2.56q4.137-2.557 7.289-4.923V92.166H85.893l-16.548 20.48v5.12l11.032 2.757v5.12h-5.91l-8.274 17.723 8.274 12.6zm-8.274-66.56l-2.758-2.363 2.758-2.363 2.364 2.363zm8.274 0l-2.758-2.363L124.9 77.2l3.152 2.363z" fill-rule="evenodd"/></svg>