<svg xmlns="http://www.w3.org/2000/svg" width="100%" height="100%" viewBox="0 0 406.063 303.344" preserveAspectRatio="xMidYMid meet" id="target"><path d="M329.712 297.74l4.4 2.8v2.8h4.8v-5.595l26.376-2.4v-4.8h4.8l2.4-7.593h4.8l16.785-19.982-2.4-15.986 4.4-12.389 9.991-7.593v-2.4l-9.991 4.8h-4.4v-9.992h6.794v-5.195l-9.192 5.195v2.4h-14.8v-7.593h-2v2.4h2l-6.794 10.391v2.4l6.794-2.4h5.195v4.8l-7.193 2.8-2.4 5.195q-9.591 10.4-20.382 12.789a110.769 110.769 0 0 1-23.978 2.4h-25.176a61.154 61.154 0 0 0-23.579 4.8l-57.15-9.61q-5.2-3.194-8.592-5.6t-6.994-4.8q-3.6-2.4-8.393-5.195t-4.795-7.593h-7.194v-10.382h2.4l2.4-7.593v-7.588h-2.4v5.195h-5.2l2.8-20.382 2.4-7.593v-2.4h-2.4v-10.394h2.4v-2.4h2.4v-2.4h-4.8v-7.993h7.194l-2.4-4.8 4.4-30.773h2.8V89.525a39.571 39.571 0 0 0-2.4-13.987q-2.4-6.388-4.8-11.59l-4.8 2.4-11.989-2.4-33.171 2.4-9.991-2.4v-4.8h2.4l2.4-5.595-2.4-12.788v-4.8h35.968v2.4a179.985 179.985 0 0 1 32.171 2.8 298.268 298.268 0 0 0 32.172 4q16.785 1.2 32.371 2.4t32.371 3.6l7.194-2.4h-2.8l2.8-10.391-2.8-17.584L176.652 7.998l-45.56 2.4h-10.391a44.571 44.571 0 0 1-10.79-1.2 40.865 40.865 0 0 1-9.591-3.8q-4.8-2.595-9.592-5.4L45.169 18.389q-2 2.4-6.994 3.6a15.524 15.524 0 0 0-8.393 5.2 82.436 82.436 0 0 0-5.795 7.593 57.928 57.928 0 0 0-4.8 9.192v7.593q0 5.2 1.2 7.593a13.874 13.874 0 0 1 1.2 6.2q0 3.8 4.8 6.594l35.967-23.192h11.989v7.993h-5.2l-4.4 7.193 2 12.789-4.4 10.39q-7.6 7.6-14.587 13.988a90.069 90.069 0 0 1-15.586 11.39q-8.6 5-15.586 9.991a48.367 48.367 0 0 1-16.572 7.393l2.4 7.993 9.192-2.4 9.991 2.4 11.59-4.8h7.593v15.187l25.977 22.78 11.989-5.2 9.591-4.795-2.8-12.789-35.171-20.774V117.5a29.848 29.848 0 0 0 13.987-3.8q7.194-3.793 13.188-7.593a26.35 26.35 0 0 1 14.387-3.8q8.393 0 13.188-5.195h11.99l2 12.788a152.127 152.127 0 0 1-12.992 36.774q-8.6 16.785-17.984 34.57t-20.179 34.169a398.574 398.574 0 0 0-20.382 34.769l-30.773 19.982-7.194-2.4H2.412l2.4 4.8-2.4 7.993 16.785 4.8 19.183-2.4v-4.8l11.989-2.4v-5.6l6.794-2.4v-4.8h7.593v-3.2h-2.4v-4.8l18.783-12.789 2.4-22.78 7.194 2.4 2.4-5.195 4.4-2.4-2-7.593 2-7.593 5.2 2.4 6.793-20.382 14.787-7.194v-2.8h-2.8l11.989-12.389 2.8-18.384h2.4v-4.8l6.794-2.4v-5.567l21.581-27.975h4.8l-4.8 53.553v33.17h4.8v5.192h-2.4v5.2h-2.4l2.4 15.186h2.4l-2.4 7.593 7.194 45.959q14.387 0 25.177 5.2a183.339 183.339 0 0 0 21.581 8.792 222.377 222.377 0 0 0 22.58 6.194 152.812 152.812 0 0 1 23.778 7.394l11.99-2.4h9.591v4.8l23.579 5.195 2.8-2.8 6.794 2.8v2.8zm-7.593 0h-7.194v-4.8l9.592 2.4zm64.342-65.942l-2.4-2.4v-4.8h5.195v4.8zm-209.809-7.193l-2.4-2.8v-5.195h4.795v5.195zm-4.8-15.586l2.4-17.585h4.795v20.382zm77.93-61.945q6-1.2 11.99-2.8a51.4 51.4 0 0 0 10.59-4q4.59-2.4 6.994-10.391l-14.387-25.177H246.19l-2.4 9.991q-5.2 2.8-9.991 5.4t-9.392 5a22.58 22.58 0 0 1-10.591 2.4h-10.79v5.595l7.194 7.194 25.976 5.595v2.4a69.71 69.71 0 0 0 13.59-1.207z" fill-rule="evenodd"/></svg>