<svg xmlns="http://www.w3.org/2000/svg" width="100%" height="100%" viewBox="0 0 406.063 340.875" preserveAspectRatio="xMidYMid meet" id="target"><path d="M117.504 340.894l13.988-24.379-2.4-13.188 7.993-73.534-5.593-51.959-8.393-2.8 30.373-59.54-2.8-11.19-11.19-2.8v-11.19l43.96-5.595a274.332 274.332 0 0 1 28.975 1.6q14.986 1.6 28.774 2.8t27.376 2.8a108.494 108.494 0 0 1 27.575 7.193h16.186a40.5 40.5 0 0 0 15.186-2.8 40.023 40.023 0 0 1 14.987-2.8q7.989 0 13.987-8.792v-4.8a196.972 196.972 0 0 1-38.565-9.791 186.6 186.6 0 0 0-39.965-9.591 328.876 328.876 0 0 0-41.163-2.6h-42.159l-5.595-48.756-16.386-9.188-38.366 11.59v10.99a17.54 17.54 0 0 0 2.6 9.791q2.6 4 4 6.394t4.2 8.393l-2.8 10.79a44.661 44.661 0 0 1-18.983 6.594 160.88 160.88 0 0 0-21.98 4.4q-11 3-20.582 5.595a77.5 77.5 0 0 1-20.382 2.6 34.79 34.79 0 0 0-9.991 6.794 33.12 33.12 0 0 0-6.594 9.591 63.376 63.376 0 0 1-5.4 9.592q-2.8 4-5.995 9.192l5.995 19.183q13.582 2.4 21.781-4a78.216 78.216 0 0 1 19.18-10.789q10.987-4.393 20.582-8.393t20.382-9.192h5.994l-3.2 26.776-10.784 11.186a131.3 131.3 0 0 1-21.98 27.175 154.988 154.988 0 0 1-27.575 21.781 257.177 257.177 0 0 0-27.376 19.183 93.18 93.18 0 0 1-30.176 16.184l-5.2 8.393v17.784a28.348 28.348 0 0 0 1.2 8.193 13.145 13.145 0 0 0 4 6.394l43.961-10.391v-5.993l8.393-2.4 10.789-16.78h5.2l24.778-29.574h11.186l2.8 7.993v25.977a254.356 254.356 0 0 1-1.4 25.977q-1.4 13.59-2.6 25.777a161.915 161.915 0 0 1-4 23.379l5.2 31.571 5.595 3.2h2.4zm194.827-22.78q10.986-1.6 21.98-2.8a215.942 215.942 0 0 1 23.379-1.2q12.382 0 20.782-7.993a22 22 0 0 0 6.793-13.388 66.088 66.088 0 0 0 0-17.784 19.017 19.017 0 0 1 5.4-16.386q6.594-6.791 12.588-12.788h2.8l-41.563 19.582q-21.984 0-43.961-1.6t-39.564-9.791a256.021 256.021 0 0 1-35.569-20.382 192.578 192.578 0 0 0-37.167-19.782v-11.59l7.993-5.195 16.785-19.183a20.533 20.533 0 0 0 8.193-7.993 26.752 26.752 0 0 1 6.994-8.192 62.546 62.546 0 0 1 9.591-5.8 24.138 24.138 0 0 1 10.791-2.8l7.992-13.188-16.391-24.367-13.588 2.4-24.377-2.4v-8.4h-6v-7.99h-10.79l-19.183 24.379-5.2 7.993-24.778 19.182v7.993h21.98v6l16.386 10.391-5.595 13.987-29.974-13.987-16.785 8.392 2.8 18.783 16.385 8.393v7.984l-19.183 2.8v13.988l11.19 5.195 21.981-7.993q13.581 0 21.78 7.993t17.784 16.386a137.729 137.729 0 0 1 17.984 19.182q8.393 10.791 19.183 13.189v5.6l38.366 24.778a151.734 151.734 0 0 0 21.788-1.603zm-96.119-159.463l-15.985-7.993v-5.195l10.79 2.4 11.19-5.195h5.195v5.195h-2.8l-5.2 7.993z" fill-rule="evenodd"/></svg>